<?xml version="1.0" encoding="iso-8859-1"?>
<!-- Uploaded to: SVG Repo, www.svgrepo.com, Generator: SVG Repo Mixer Tools -->
<svg height="800px" width="800px" version="1.1" id="Layer_1" xmlns="http://www.w3.org/2000/svg" xmlns:xlink="http://www.w3.org/1999/xlink" 
	 viewBox="0 0 512 512" xml:space="preserve">
<path style="fill:#F7B239;" d="M378.385,64.794c51.186,0,92.693,53.424,92.693,119.315c0,65.902-41.506,119.327-92.693,119.327
	c-36.728,0-68.476-27.518-83.472-67.402c31.759-18.924,53.771-60.307,53.771-108.315c0-18.61-3.312-36.236-9.21-51.925
	C351.304,68.733,364.497,64.794,378.385,64.794z"/>
<path style="fill:#E09B2D;" d="M333.824,184.121c0-55.185,29.099-101.613,68.618-115.255c-7.673-2.649-15.735-4.071-24.057-4.071
	c-51.186,0-92.682,53.424-92.682,119.327s41.495,119.327,92.682,119.327c8.321,0,16.381-1.425,24.053-4.072
	C362.922,285.731,333.824,239.305,333.824,184.121z"/>
<polygon style="fill:#F7B239;" points="378.385,303.448 399.379,339.806 393,339.806 357.391,339.806 "/>
<polygon style="fill:#F95428;" points="133.61,303.448 154.615,339.806 146.166,339.806 112.617,339.806 "/>
<g>
	<polygon style="fill:#9AD14B;" points="256.003,247.046 276.997,283.405 268.559,283.405 235.01,283.405 	"/>
	<path style="fill:#9AD14B;" d="M339.475,75.795c5.897,15.689,9.21,33.315,9.21,51.925c0,48.008-22.012,89.391-53.771,108.315
		c-11.829,7.061-25.011,11-38.91,11c-13.899,0-27.093-3.939-38.91-11c5.898-15.701,9.21-33.315,9.21-51.914
		c0-48.008-22.023-89.391-53.771-108.326c14.984-39.884,46.732-67.402,83.472-67.402S324.491,35.911,339.475,75.795z"/>
</g>
<path style="fill:#90BC42;" d="M211.442,127.72c0-55.185,29.099-101.613,68.618-115.255c-7.673-2.649-15.735-4.071-24.057-4.071
	c-51.186,0-92.682,53.424-92.682,119.327s41.495,119.327,92.682,119.327c8.321,0,16.381-1.425,24.053-4.072
	C240.54,229.33,211.442,182.903,211.442,127.72z"/>
<path style="fill:#F95428;" d="M226.303,184.121c0,18.599-3.312,36.213-9.21,51.914c-14.996,39.895-46.744,67.413-83.483,67.413
	c-51.186,0-92.682-53.424-92.682-119.327S82.424,64.794,133.61,64.794c13.899,0,27.082,3.939,38.921,11
	C204.28,94.729,226.303,136.113,226.303,184.121z"/>
<path style="fill:#E54728;" d="M89.049,184.121c0-55.185,29.099-101.613,68.618-115.255c-7.673-2.649-15.735-4.071-24.057-4.071
	c-51.186,0-92.682,53.424-92.682,119.327s41.495,119.327,92.682,119.327c8.321,0,16.381-1.425,24.053-4.072
	C118.147,285.731,89.049,239.305,89.049,184.121z"/>
<path style="fill:#333333;" d="M450.556,94.591c-19.133-24.63-44.762-38.193-72.168-38.193c-12.007,0-23.635,2.592-34.69,7.699
	c-7.931-17.474-19.032-32.371-32.464-43.438C294.828,7.144,275.729,0,256.002,0s-38.826,7.144-55.231,20.659
	c-13.421,11.056-24.513,25.938-32.442,43.391c-10.96-5.03-22.665-7.653-34.714-7.653c-27.407,0-53.04,13.564-72.17,38.194
	c-18.645,24.003-28.913,55.797-28.913,89.526s10.269,65.523,28.913,89.526c15.866,20.425,36.204,33.232,58.316,37.011
	l-14.409,24.958c-1.5,2.596-1.5,5.797,0,8.393c1.5,2.596,4.269,4.197,7.268,4.197h23.93c-1.694,5.15-5.015,8.766-9.114,13.223
	c-6.579,7.154-14.767,16.058-14.767,32.979c0,16.924,8.188,25.828,14.767,32.982c6,6.526,10.337,11.241,10.337,21.619
	c0,10.378-4.336,15.094-10.337,21.62c-6.58,7.155-14.767,16.06-14.767,32.982c0,4.635,3.757,8.393,8.393,8.393
	s8.393-3.758,8.393-8.393c0-10.378,4.336-15.094,10.337-21.62c6.58-7.155,14.767-16.06,14.767-32.982
	c0-16.923-8.187-25.827-14.767-32.982c-6-6.526-10.337-11.241-10.337-21.62c0-10.376,4.336-15.091,10.337-21.616
	c5.394-5.865,11.861-12.915,14.02-24.586h0.797c2.999,0,5.769-1.6,7.268-4.197c1.5-2.596,1.5-5.797,0-8.393l-14.409-24.958
	c22.113-3.78,42.451-16.586,58.317-37.011c6.108-7.863,11.296-16.572,15.539-25.901c6.741,3.112,13.694,5.294,20.818,6.516
	l-14.406,24.952c-1.5,2.596-1.5,5.796,0,8.393c1.5,2.596,4.269,4.197,7.268,4.197h23.931c-1.694,5.15-5.015,8.766-9.114,13.223
	c-6.579,7.154-14.767,16.058-14.767,32.979c0,16.924,8.187,25.828,14.767,32.982c6,6.526,10.337,11.242,10.337,21.62
	s-4.336,15.094-10.337,21.62c-6.58,7.155-14.767,16.06-14.767,32.982c0,4.635,3.757,8.393,8.393,8.393
	c4.636,0,8.393-3.758,8.393-8.393c0-10.378,4.336-15.094,10.337-21.62c6.58-7.155,14.767-16.06,14.767-32.982
	s-8.187-25.828-14.767-32.982c-6-6.526-10.337-11.242-10.337-21.62c0-10.376,4.336-15.091,10.337-21.616
	c5.394-5.865,11.861-12.915,14.02-24.586h0.797c2.999,0,5.769-1.6,7.268-4.197c1.5-2.596,1.5-5.797,0-8.393l-14.406-24.952
	c7.132-1.223,14.091-3.408,20.835-6.523c7.936,17.474,19.039,32.371,32.472,43.438c12.53,10.322,26.631,16.915,41.38,19.46
	l-14.421,24.98c-1.5,2.596-1.5,5.797,0,8.393c1.5,2.596,4.269,4.197,7.268,4.197h25.987c-1.694,5.15-5.015,8.766-9.114,13.223
	c-6.579,7.154-14.767,16.058-14.767,32.979c0,16.924,8.188,25.828,14.767,32.982c6,6.526,10.337,11.241,10.337,21.619
	c0,10.378-4.336,15.094-10.337,21.62c-6.58,7.155-14.767,16.06-14.767,32.982c0,4.635,3.757,8.393,8.393,8.393
	s8.393-3.758,8.393-8.393c0-10.378,4.336-15.094,10.337-21.62c6.58-7.155,14.767-16.06,14.767-32.982
	c0-16.923-8.187-25.827-14.767-32.982c-6-6.526-10.337-11.241-10.337-21.62c0-10.376,4.336-15.091,10.337-21.616
	c5.41-5.883,11.898-12.959,14.036-24.693c2.492-0.384,4.709-1.867,5.992-4.089c1.5-2.596,1.5-5.797,0-8.393l-14.411-24.963
	c22.112-3.779,42.45-16.585,58.317-37.011c18.644-24.003,28.912-55.796,28.912-89.524S469.2,118.594,450.556,94.591z
	 M133.616,320.229l6.458,11.185h-12.915L133.616,320.229z M133.616,295.05c-46.482,0-84.297-49.764-84.297-110.934
	S87.134,73.183,133.616,73.183s84.299,49.764,84.299,110.934S180.098,295.05,133.616,295.05z M205.787,94.591
	c-6.855-8.825-14.548-16.221-22.855-22.089c6.915-15.787,16.683-29.143,28.513-38.887c13.363-11.009,28.771-16.829,44.557-16.829
	s31.193,5.819,44.557,16.829c13.359,11.006,24.1,26.615,31.06,45.138c5.758,15.312,8.676,31.786,8.676,48.963
	c0,43.443-19.5,83.129-49.687,101.11c-10.901,6.516-22.545,9.82-34.606,9.82c-9.88,0-19.48-2.221-28.621-6.605
	c4.797-15.03,7.32-31.239,7.32-47.925C234.701,150.388,224.432,118.594,205.787,94.591z M256.002,263.827l6.458,11.185h-12.916
	L256.002,263.827z M378.387,320.229l6.458,11.185H371.93L378.387,320.229z M378.387,295.044c-15.78,0-31.184-5.819-44.548-16.829
	c-11.842-9.755-21.62-23.13-28.542-38.939c31.666-22.348,51.783-65.227,51.783-111.559c0-16.642-2.469-32.724-7.336-47.918
	c9.148-4.39,18.755-6.615,28.642-6.615c46.48,0,84.294,49.763,84.294,110.93S424.868,295.044,378.387,295.044z"/>
</svg>